<?xml version="1.0" encoding="UTF-8"?>
<svg id="Capa_2" data-name="Capa 2" xmlns="http://www.w3.org/2000/svg" viewBox="0 0 482.67 636.27">
  <defs>
    <style>
      .cls-1 {
        fill: #007aff;
      }
    </style>
  </defs>
  <g id="Capa_1-2" data-name="Capa 1">
    <g>
      <path d="M242.22,501.01v-17.02c0-2.5-1.71-4.22-4.2-4.22h-111.54c-2.49,0-4.21,1.72-4.21,4.22v17.02c0,2.48,1.72,4.21,4.21,4.21h41.89v123.37c0,2.49,1.73,4.23,4.2,4.23h19.34c2.5,0,4.21-1.73,4.21-4.23v-123.37h41.9c2.49,0,4.2-1.73,4.2-4.21M382.82,627.46c2.49,2.69.97,5.36-2.1,5.36h-24.29c-3.27,0-4.98-.77-7.08-3.26l-14.54-16.06c-9.75,12.99-23.34,22.76-45.91,22.76-27.93,0-49.93-16.85-49.93-45.72,0-22.2,11.86-34.06,29.85-44.02-8.8-10.13-12.82-20.84-12.82-30.2,0-23.73,16.65-39.98,41.7-39.98s41.32,15.12,41.32,37.49c0,19.11-13.78,29.83-28.33,37.88l21.44,23.15,12.05-21.05c1.52-2.49,3.24-3.45,6.31-3.45h18.55c3.06,0,4.79,2.1,2.88,5.35l-21.43,36.74,32.33,35ZM298.07,500.04c-9.94,0-15.67,6.33-15.67,14.75,0,6.5,3.43,12.24,11.28,20.65,13.58-7.84,19.33-12.63,19.33-21.05,0-7.84-4.97-14.36-14.93-14.36M289.47,612.15c12.24,0,20.46-5.93,27.16-16.06l-30.99-33.29c-11.87,6.7-19.51,13.39-19.51,26.79s10.71,22.57,23.34,22.57M140.88,627.85c.95,2.47-.59,4.97-3.25,4.97h-19.91c-2.86,0-4.59-1.34-5.53-4.02l-11.29-32.51h-61.78l-11.31,32.51c-.95,2.68-2.66,4.02-5.54,4.02H3.52c-2.49,0-4.21-2.5-3.25-4.97l51.84-144.25c.96-2.68,2.68-3.82,5.55-3.82h25.63c2.86,0,4.77,1.14,5.74,3.82l51.85,144.25ZM92.09,571.23l-21.99-63.14-22.2,63.14h44.19ZM478.47,479.78c2.48,0,4.2,1.72,4.2,4.21v17.02c0,2.48-1.72,4.21-4.2,4.21h-41.9v123.38c0,2.5-1.73,4.22-4.21,4.22h-19.33c-2.48,0-4.2-1.72-4.2-4.22v-123.38h-41.91c-2.49,0-4.2-1.73-4.2-4.21v-17.02c0-2.49,1.71-4.21,4.2-4.21h111.54Z"/>
      <path class="cls-1" d="M343.6,28.19C313.63,10.21,278.85,0,241.33,0s-73.6,10.57-103.67,29.02c-9.02,5.56-14.09,10.01-14.09,15.72,0,16.86,39.39,35.01,109.27,35.01s122.8-19.87,122.8-38.99c0-4.55-3.97-7.75-12.04-12.57M373.35,50.4c.84,1.31,1.26,2.72,1.26,4.61,0,22.21-67.95,61.51-176.13,61.51-79.47,0-94.35-29.5-94.35-48.26,0-6.69,2.57-13.56,8.23-20.53.32-.41.05-.58-.32-.26-10.32,8.75-19.79,18.59-28.12,29.22-3.99,5.03-6.44,9.49-6.44,12.16,0,38.86,97.42,67.06,188.53,67.06,97.08,0,140.4-31.69,140.4-59.57,0-9.95-3.88-15.77-13.77-27.04-6.45-7.33-12.52-13.31-18.97-19.16-.31-.27-.53-.06-.31.26M60.7,114.14c-5.88,11.65-12.37,31.28-14.3,41.44-.85,4.35-.48,6.44,1.04,9.68,12.26,26.05,74.28,67.69,218.98,67.69,88.27,0,156.84-21.68,167.96-61.29,2.04-7.29,2.15-14.99-.48-25.36-2.93-11.57-8.43-25.1-13.09-34.58-.16-.31-.43-.26-.37.1,1.72,51.92-143.02,85.4-216.06,85.4-79.1,0-145.11-31.54-145.11-71.36,0-3.82.77-7.65,1.77-11.62.12-.37-.21-.42-.36-.11M201.14,280.07c-102.31,0-150.54-47.68-159.3-80.22-.1-.45-.42-.36-.42.06,0,10.95,1.11,25.09,2.99,34.47.88,4.56,4.6,11.74,10.06,17.44,24.77,25.83,86.54,62.03,193.52,62.03,145.74,0,179.06-48.55,185.87-64.53,4.87-11.42,7.39-32.06,7.39-49.4,0-4.19-.11-7.55-.26-10.85,0-.52-.31-.58-.42-.04-7.28,39.08-131.81,91.05-239.43,91.05M254.9,368.03c49.2,0,103.26-13.43,135.58-39.98,8.85-7.23,17.29-16.87,24.84-29.81,4.34-7.44,8.6-16.29,12.06-24.98.16-.43-.11-.63-.43-.17-30.08,44.28-117.14,71.87-207.04,71.87-63.54,0-131.91-20.32-158.68-59.14-.26-.38-.53-.21-.38.2,24.95,53,100.59,82,194.05,82M118.74,357.79c33.89,26.25,76.44,42.02,122.59,42.02,50.51,0,96.55-18.74,131.71-49.55.41-.38.21-.64-.21-.38-15.77,10.54-60.72,33.54-131.49,33.54-61.51,0-100.37-13.73-122.33-25.98-.41-.21-.58.1-.26.36"/>
    </g>
  </g>
</svg>