<?xml version="1.0" encoding="UTF-8"?>
<svg id="Capa_2" data-name="Capa 2" xmlns="http://www.w3.org/2000/svg" viewBox="0 0 710.7 232.22">
  <defs>
    <style>
      .cls-1 {
        fill: #007aff;
      }

      .cls-2 {
        fill: #ffffff;
      }
    </style>
  </defs>
  <g id="Capa_1-2" data-name="Capa 1">
    <g>
      <path class="cls-1" d="M175.5,16.37C158.1,5.93,137.9,0,116.11,0s-42.76,6.14-60.22,16.86c-5.23,3.23-8.19,5.81-8.19,9.13,0,9.8,22.88,20.32,63.47,20.32s71.32-11.53,71.32-22.64c0-2.65-2.31-4.51-6.99-7.3M192.79,29.27c.48.76.73,1.58.73,2.68,0,12.9-39.46,35.72-102.3,35.72-46.16,0-54.8-17.13-54.8-28.02,0-3.9,1.49-7.88,4.78-11.92.18-.25.03-.34-.18-.15-5.99,5.08-11.5,10.8-16.34,16.98-2.31,2.92-3.74,5.5-3.74,7.05,0,22.58,56.59,38.95,109.51,38.95,56.39,0,81.55-18.41,81.55-34.6,0-5.78-2.25-9.16-8-15.71-3.74-4.26-7.28-7.73-11.01-11.13-.18-.15-.31-.03-.18.15M11.19,66.29c-3.4,6.76-7.17,18.18-8.3,24.07-.49,2.53-.27,3.74.61,5.64,7.12,15.12,43.15,39.31,127.19,39.31,51.26,0,91.09-12.6,97.54-35.6,1.18-4.23,1.25-8.7-.27-14.72-1.71-6.73-4.9-14.57-7.61-20.08-.09-.19-.25-.15-.22.06,1.01,30.15-83.06,49.59-125.48,49.59-45.94,0-84.28-18.31-84.28-41.44,0-2.21.46-4.44,1.03-6.75.06-.21-.12-.24-.22-.06M92.77,162.66C33.34,162.66,5.32,134.98.24,116.08c-.06-.27-.24-.21-.24.04,0,6.35.63,14.57,1.73,20.01.52,2.65,2.67,6.81,5.84,10.13,14.39,15,50.27,36.03,112.4,36.03,84.65,0,104-28.2,107.95-37.48,2.83-6.64,4.29-18.63,4.29-28.7,0-2.44-.06-4.38-.15-6.31,0-.3-.18-.33-.25-.03-4.23,22.7-76.55,52.88-139.05,52.88M123.99,213.75c28.57,0,59.98-7.79,78.75-23.22,5.13-4.19,10.03-9.79,14.42-17.31,2.53-4.32,4.99-9.46,7-14.51.09-.24-.06-.36-.24-.09-17.47,25.71-68.04,41.74-120.25,41.74-36.92,0-76.62-11.8-92.17-34.35-.15-.21-.31-.12-.22.12,14.49,30.79,58.42,47.62,112.7,47.62M44.91,207.82c19.69,15.24,44.39,24.41,71.2,24.41,29.33,0,56.07-10.9,76.48-28.79.25-.21.12-.36-.12-.21-9.16,6.11-35.27,19.47-76.37,19.47-35.72,0-58.3-7.96-71.06-15.08-.24-.12-.33.06-.15.21"/>
      <path class="cls-2" d="M446.44,185.89c2.26,0,3.82-1.56,3.82-3.83v-112.14h38.08c2.26,0,3.82-1.57,3.82-3.83v-15.47c0-2.26-1.56-3.83-3.82-3.83h-101.36c-2.26,0-3.82,1.56-3.82,3.83v15.47c0,2.26,1.56,3.83,3.82,3.83h38.07v112.14c0,2.26,1.57,3.83,3.82,3.83h17.57ZM619.95,181.03c2.26,2.43.87,4.86-1.93,4.86h-22.07c-2.96,0-4.53-.7-6.44-2.97l-13.21-14.6c-8.86,11.82-21.22,20.69-41.73,20.69-25.38,0-45.38-15.3-45.38-41.56,0-20.18,10.78-30.95,27.13-39.99-8-9.22-11.65-18.95-11.65-27.46,0-21.57,15.12-36.35,37.9-36.35s37.56,13.75,37.56,34.08c0,17.38-12.52,27.11-25.73,34.42l19.47,21.04,10.96-19.14c1.39-2.26,2.95-3.12,5.74-3.12h16.86c2.78,0,4.35,1.91,2.61,4.87l-19.47,33.37,29.39,31.84ZM542.92,65.22c-9.03,0-14.25,5.74-14.25,13.39,0,5.91,3.13,11.13,10.26,18.78,12.34-7.13,17.56-11.47,17.56-19.12,0-7.14-4.52-13.05-13.57-13.05M535.1,167.11c11.12,0,18.59-5.38,24.68-14.59l-28.16-30.26c-10.79,6.09-17.74,12.17-17.74,24.34s9.74,20.51,21.22,20.51M400.05,181.36c.87,2.26-.53,4.53-2.95,4.53h-18.09c-2.61,0-4.17-1.22-5.05-3.66l-10.25-29.55h-56.16l-10.26,29.55c-.88,2.44-2.43,3.66-5.05,3.66h-17.04c-2.25,0-3.82-2.26-2.95-4.53l47.12-131.09c.87-2.44,2.43-3.48,5.04-3.48h23.3c2.61,0,4.35,1.04,5.21,3.48l47.12,131.09ZM355.71,129.91l-19.99-57.37-20.17,57.37h40.16ZM647.42,185.89c-2.26,0-3.82-1.56-3.82-3.83v-112.14h-38.08c-2.27,0-3.83-1.57-3.83-3.83v-15.47c0-2.26,1.56-3.83,3.83-3.83h101.36c2.26,0,3.82,1.56,3.82,3.83v15.47c0,2.26-1.56,3.83-3.82,3.83h-38.08v112.14c0,2.26-1.57,3.83-3.82,3.83h-17.56Z"/>
    </g>
  </g>
</svg>