<?xml version="1.0" encoding="UTF-8"?>
<svg id="Capa_2" data-name="Capa 2" xmlns="http://www.w3.org/2000/svg" viewBox="0 0 522.77 279.23">
  <defs>
    <style>
      .cls-1 {
        fill: #fc0;
      }

      .cls-2 {
        fill: #fff;
      }
    </style>
  </defs>
  <g id="Capa_1-2" data-name="Capa 1">
    <g>
      <path d="M490.03,187.59c0-2.05,0-11.52,0-14.24,3.93-1.14,7.5-2.68,10.8-4.64,17.47-10.36,25.93-32.25,20.11-52.05-4.63-15.76-17.04-27.52-32.41-31.61-4.55-17.89-19.28-32.66-37.48-36.28-.75-.15-1.5-.28-2.25-.39-1.87-6.89-5.69-13.24-11.19-18.45C416.44,9.9,391.2-.17,362.71,0c-.13,0-.26,0-.39,0-27.89,0-52.46,9.72-73,28.89-8.2,7.64-12.87,17.55-13.17,27.9-.28,9.8,3.35,19.16,10.22,26.34.97,1.02,1.99,1.96,3.04,2.84.17.74.36,1.48.57,2.22-9.42-3.53-19.7-5.58-31.17-6.2-2.91-.16-5.84-.24-8.72-.24-16.94,0-33.58,2.75-49.46,8.17-11.27,3.85-20.1,11.06-25.53,20.52-15.12-16.96-34.96-27.04-57.57-29.17-2.93-.28-5.87-.42-8.73-.42-3.76,0-7.45.24-11.05.71,0-4.42,0-8.83-.02-13.24-.04-20.28-12.56-38.62-31.16-45.65-5.77-2.18-11.75-3.29-17.78-3.29-13.92,0-26.89,5.82-36.52,16.38C0,49.22,0,64.8,0,70.66,0,76.21,0,81.76.02,87.31c0,5.36.02,10.71.02,16.07v28.17c0,31.74,0,64.55.08,96.85.02,8.29,1.66,15.81,4.87,22.37,8.39,17.14,24.72,27.38,43.67,27.38.37,0,.74,0,1.11-.01,8.69-.18,16.76-2.46,23.75-6.53,5.44,2.57,11.15,4.44,17.09,5.59,6.68,1.29,13.3,1.95,19.66,1.95,24.31,0,45.81-9.39,62.76-27.27,4.54,5.65,10.1,10.66,16.65,14.91,12.32,8.01,26.74,12.19,42.88,12.42.53,0,1.06.01,1.59.01,12.66,0,24.29-2.29,34.77-6.82,7.14,3.94,14.97,5.99,23.08,5.99,7.3,0,14.5-1.66,21.4-4.94,5.52-2.63,10.3-6.04,14.24-10.1,7.4,7.75,17.28,13.02,28.39,14.38,2.15.26,4.32.4,6.46.4,18.16,0,33.75-9.47,42.29-23.9,6.92,9.44,16.6,16.51,28.56,20.54,8.78,2.95,17.95,4.45,27.26,4.45h0c7.6,0,15.36-1,23.07-2.98,8.62-2.21,15.62-5.48,21.41-10,15.87-12.39,21.47-33.31,13.94-52.07-5.22-13-15.94-22.56-28.98-26.57Z"/>
      <g>
        <path class="cls-1" d="M362.76,30c21.05-.16,39.02,7.33,54.23,21.73,3.7,3.5,4.17,8.28,1.16,11.24-3.15,3.09-7.52,2.77-11.36-.82-25.18-23.56-61.64-23.93-87.04-.87-4.18,3.8-8.72,4.23-11.7,1.12-3.03-3.17-2.47-7.65,1.72-11.56,14.91-13.9,32.56-20.93,52.99-20.83"/>
        <path class="cls-1" d="M406.06,78.13c-.39,2.76-1.41,5.1-4.15,6.33-2.85,1.28-5.56.99-7.96-.96-2.73-2.22-5.16-4.78-8.28-6.57-18.72-10.75-37.56-9-53.89,5.1-3.95,3.41-8.46,3.64-11.33.57-3.06-3.27-2.56-7.4,1.36-11.2,21.98-21.3,59.84-20.96,81.25.7,1.71,1.73,2.72,3.66,2.99,6.03"/>
        <path class="cls-1" d="M360.82,81.28c11.88.01,21.43,3.58,29.52,10.89,3.92,3.55,4.69,8.15,2,11.18-3.06,3.45-7.38,3.34-11.73-.3-11.4-9.52-25.25-9.67-36.74-.4-4.87,3.93-9.03,4.01-12.07.23-2.74-3.4-1.7-7.68,2.74-11.48,7.85-6.72,16.97-9.96,26.28-10.12"/>
        <path class="cls-2" d="M68.03,230.66c-.63,2.04-1.06,4.17-1.93,6.11-3.27,7.3-9.04,11.21-16.97,11.37-7.84.16-13.8-3.58-17.22-10.56-1.34-2.74-1.81-6.15-1.82-9.26-.11-41.65-.07-83.3-.08-124.95,0-10.91-.03-21.81-.03-32.72,0-5.34.57-10.44,4.45-14.7,5.62-6.16,13.63-8.22,21.52-5.24,6.94,2.63,11.75,9.73,11.77,17.66.04,19.75.01,39.49.02,59.24,0,1.15.14,2.31.21,3.46.36.21.72.42,1.08.63.26-.6.4-1.29.8-1.78,11.53-14.46,26.63-20.52,44.87-18.8,15.77,1.49,28.93,8.51,39.09,20.5,7.36,8.68,12.06,18.85,14.12,30.25,1.87,10.37,2.32,20.68.93,31.12-1.59,11.96-5.36,23.04-12.8,32.63-15.31,19.76-35.48,26.81-59.74,22.11-10.54-2.04-19.15-7.88-26.3-15.83-.48-.53-.72-1.28-1.07-1.92-.3.22-.6.44-.9.66ZM67.16,178.22c.09,15.9,5.24,26.6,15.23,33.6,16.92,11.85,39.43,3.33,46.59-15.24,2.92-7.58,3.72-15.39,2.57-23.5-2.09-14.68-12.86-28.52-28.97-29.89-10.02-.86-18.57,2.23-25.43,9.41-7.25,7.58-9.77,17.1-9.99,25.64Z"/>
        <path class="cls-2" d="M274.08,232.99c-2.09,1.81-3.85,3.42-5.7,4.93-10.31,8.43-22.32,11.5-35.39,11.31-9.68-.14-18.82-2.29-26.97-7.58-14.22-9.24-18.98-22.88-17.34-39.18.9-8.95,4.24-16.9,10.74-23.3,5.48-5.39,12.14-8.73,19.49-10.75,17.9-4.9,35.62-4.02,53.18,1.75.68.22,1.41.27,2.13.4,1.33-9.02-2.55-19.26-12.31-23.49-7.21-3.12-14.79-3.67-22.38-2.7-7.04.9-14.03,2.42-20.94,4.07-6.36,1.52-11.58-.27-15.87-4.75-3.71-3.87-4.37-8.69-3.26-13.9,1.3-6.13,5.43-9.63,10.88-11.49,15.18-5.18,30.84-7.24,46.85-6.37,10.2.56,20.1,2.59,29.21,7.46,11.32,6.05,18.08,15.72,21.7,27.85,2.09,7.02,2.64,14.2,2.64,21.46,0,20.11-.09,40.22.06,60.33.06,8-3.18,13.94-10.27,17.31-7.46,3.54-14.79,2.4-20.99-2.95-2.19-1.89-3.26-5.11-4.75-7.77-.38-.68-.41-1.55-.68-2.66ZM245.71,223.17c7.12.11,13.69-1.71,19.73-5.49,7.14-4.47,11.67-15.55,9.53-23.7-.21-.79-1.27-1.62-2.11-1.93-10.4-3.76-21.06-5.27-32.01-2.96-5.32,1.12-10.14,3.35-13.36,8.07-3.78,5.56-3.33,16.93,2.45,21.13,4.8,3.49,9.97,4.98,15.75,4.88Z"/>
        <path class="cls-2" d="M475.27,215.53c-2.06.09-4.15.21-6.18-.03-5.16-.63-8.68-4.46-8.91-9.61-.15-3.28-.14-6.58-.14-9.86-.01-15.79.04-31.58-.05-47.37-.01-2.36.69-3.09,3.04-2.99,4.31.18,8.67.39,12.94-.06,3.27-.34,6.81-1.06,9.58-2.7,5.82-3.45,8.48-11.49,6.63-17.78-1.97-6.69-8.17-11.47-15.28-11.63-4.77-.11-9.55-.17-14.32-.02-2.06.07-2.61-.63-2.57-2.56.09-4.89.12-9.78,0-14.66-.2-8.41-6.87-16.48-14.79-18.05-11.7-2.32-22.21,5.55-23.06,17.49-.33,4.66-.25,9.36-.07,14.03.1,2.66-.49,3.79-3.43,3.96-4.29.25-7.81,2.5-10.44,5.91-7.91,10.28-1.49,25.01,11.52,25.97,1.83.14,2.34.87,2.33,2.64-.07,11.13-.03,22.26-.03,33.39l.86,37.32c1.15,12.76,7.04,23.04,20,27.4,10.94,3.68,22.17,3.7,33.3.85,3.65-.94,7.5-2.32,10.41-4.59,5.6-4.37,7.01-11.15,4.56-17.24-2.51-6.24-8.86-10.13-15.9-9.82Z"/>
        <path class="cls-2" d="M381.77,180.13c0,16.07.02,32.14,0,48.22-.02,12.56-9.7,21.13-22.09,19.61-8.78-1.08-15.77-9.37-15.88-19.07-.1-9.3-.02-18.61-.02-27.92,0-23.12-.02-46.24.01-69.37.02-9.47,5.97-17.15,14.7-19.2,11.71-2.74,23.18,6.24,23.25,18.38.09,16.45.02,32.9.02,49.34h.01Z"/>
      </g>
    </g>
  </g>
</svg>