<?xml version="1.0" encoding="UTF-8"?>
<svg id="Capa_2" data-name="Capa 2" xmlns="http://www.w3.org/2000/svg" viewBox="0 0 347.51 256.73">
  <defs>
    <style>
      .cls-1 {
        fill: #3be213;
      }
    </style>
  </defs>
  <g id="Capa_1-2" data-name="Capa 1">
    <path class="cls-1" d="M0,141.16c.06-14.19,1.5-28.21,4.38-42.09,3.07-14.8,8.09-28.85,15.97-41.81,8.1-13.34,19.17-22.81,34.71-26.18,14.74-3.2,28.18-.35,39.86,9.51,9.27,7.82,16.67,17.28,23.3,27.34,6.77,10.27,13.25,20.73,19.94,31.05,5.13,7.92,10.89,15.3,18.85,20.67,16.01,10.8,36.69,5.81,45.14-11.56,5.79-11.89,10.38-24.37,15.66-36.52,5.72-13.14,11.06-26.5,17.6-39.23,7.2-14.01,18.59-24.1,33.61-29.32,20.63-7.17,39.59-1.6,52.56,16.99,7.97,11.43,12.68,24.36,16.61,37.59,3.3,11.12,5.43,22.51,6.78,34.02.95,8.16,1.42,16.37,2.04,24.57.76,10.18.56,20.36.01,30.55-.74,13.55-2.18,27-5.36,40.21-1.61,6.71-5.03,12.45-10.65,16.57-10.78,7.91-24.3,2.41-26.75-10.73-1.15-6.16-.95-12.3-.38-18.5,1.11-12.02,2.24-24.05,2.97-36.1.4-6.67.27-13.4-.09-20.08-.37-6.8-2.08-13.23-7.35-18.15-5.42-5.06-12.46-6.18-19.22-3.13-5.48,2.47-9.55,6.6-13.34,11.06-6.43,7.57-10.86,16.34-14.77,25.39-7.12,16.48-12.44,33.58-17.77,50.68-3.18,10.21-5.87,20.61-10.87,30.16-8.66,16.54-22.36,26.67-40.15,31.53-10.08,2.75-20.39,2.89-30.51.81-16.62-3.41-30.48-11.82-39.93-26.07-8.04-12.12-15.14-24.86-22.57-37.38-6.91-11.64-13.62-23.39-20.61-34.98-1.48-2.45-3.62-4.57-5.74-6.55-4.07-3.8-8.93-4.81-14.19-2.99-5.27,1.82-7.47,6.14-8.55,11.25-1.87,8.78-.83,17.49,1.37,25.96,3.46,13.38,7.51,26.6,11.31,39.89,2.04,7.14,4.24,14.26,4.62,21.74.27,5.41-.15,10.71-4.22,14.88-5.68,5.81-16.14,6.03-22.8.62-5.64-4.59-8.9-10.74-11.16-17.43-4.38-12.96-8.9-25.89-12.69-39.03-3.79-13.16-6-26.68-6.94-40.37-.34-4.94-.46-9.89-.67-14.83Z"/>
  </g>
</svg>