<svg xmlns="http://www.w3.org/2000/svg" viewBox="0 0 200 200" fill="none" aria-hidden="true">
  <defs>
    <filter id="glow-a" x="-40%" y="-40%" width="180%" height="180%">
      <feGaussianBlur stdDeviation="4" result="b"/>
      <feMerge><feMergeNode in="b"/><feMergeNode in="SourceGraphic"/></feMerge>
    </filter>
  </defs>
  <rect x="54" y="44" width="92" height="112" rx="14" stroke="#ffffff" stroke-opacity="0.12" stroke-width="1.5" transform="rotate(-6 100 100)"/>
  <g filter="url(#glow-a)" stroke="#ffffff" stroke-width="2.5" stroke-linecap="round" stroke-linejoin="round">
    <path d="M58 52 L142 52 L142 148 L58 148 Z"/>
    <path d="M58 52 L72 52 L72 66 L58 66 Z" fill="#ffffff" fill-opacity="0.25" stroke="none"/>
    <rect x="78" y="68" width="18" height="14" rx="2"/>
    <rect x="104" y="68" width="18" height="14" rx="2"/>
    <rect x="78" y="88" width="18" height="14" rx="2"/>
    <rect x="104" y="88" width="18" height="14" rx="2"/>
    <path d="M72 118 H128"/>
    <path d="M88 132 H112" stroke-opacity="0.6"/>
  </g>
  <text x="100" y="128" text-anchor="middle" fill="#ffffff" font-family="Montserrat,Arial,sans-serif" font-size="22" font-weight="800" letter-spacing="0.08em">SIM</text>
  <circle cx="148" cy="56" r="6" fill="#ffffff" fill-opacity="0.45"/>
  <path d="M148 44 V52 M144 48 H152" stroke="#ffffff" stroke-width="2" stroke-linecap="round" stroke-opacity="0.85"/>
</svg>
