<svg xmlns="http://www.w3.org/2000/svg" viewBox="0 0 24 24"><path fill="#00eeff" d="M12 2.16c3.2 0 3.58.01 4.85.07 1.17.05 1.8.25 2.23.41.56.22.96.48 1.38.9.42.42.68.82.9 1.38.16.43.36 1.06.41 2.23.06 1.27.07 1.65.07 4.85s-.01 3.58-.07 4.85c-.05 1.17-.25 1.8-.41 2.23-.22.56-.48.96-.9 1.38-.42.42-.82.68-1.38.9-.43.16-1.06.36-2.23.41-1.27.06-1.65.07-4.85.07s-3.58-.01-4.85-.07c-1.17-.05-1.8-.25-2.23-.41a3.7 3.7 0 0 1-1.38-.9 3.7 3.7 0 0 1-.9-1.38c-.16-.43-.36-1.06-.41-2.23-.06-1.27-.07-1.65-.07-4.85s.01-3.58.07-4.85c.05-1.17.25-1.8.41-2.23.22-.56.48-.96.9-1.38.42-.42.82-.68 1.38-.9.43-.16 1.06-.36 2.23-.41 1.27-.06 1.65-.07 4.85-.07zM12 0C8.74 0 8.33.01 7.05.07 5.78.13 4.9.33 4.15.63c-.78.3-1.44.7-2.1 1.36C1.4 2.65 1 3.31.7 4.09.4 4.84.2 5.72.14 6.99.08 8.27.07 8.68.07 12s.01 3.73.07 5.01c.06 1.27.26 2.15.56 2.9.3.78.7 1.44 1.36 2.1.66.66 1.32 1.06 2.1 1.36.75.3 1.63.5 2.9.56 1.28.06 1.69.07 5.01.07s3.73-.01 5.01-.07c1.27-.06 2.15-.26 2.9-.56.78-.3 1.44-.7 2.1-1.36.66-.66 1.06-1.32 1.36-2.1.3-.75.5-1.63.56-2.9.06-1.28.07-1.69.07-5.01s-.01-3.73-.07-5.01c-.06-1.27-.26-2.15-.56-2.9a5.5 5.5 0 0 0-1.36-2.1A5.5 5.5 0 0 0 19.91.7c-.75-.3-1.63-.5-2.9-.56C15.73.08 15.32.07 12 .07zm0 5.84a6.16 6.16 0 1 0 0 12.32 6.16 6.16 0 0 0 0-12.32zM12 16a4 4 0 1 1 0-8 4 4 0 0 1 0 8zm6.41-11.85a1.44 1.44 0 1 0 0 2.88 1.44 1.44 0 0 0 0-2.88z"/></svg>
